# AST/ASF file generated using VICON BodyLanguage
# -----------------------------------------------
:version 1.10
:name VICON
:units
  mass 1.0
  length 0.45
  angle deg
:documentation
   .ast/.asf automatically generated from VICON data using
   VICON BodyBuilder and BodyLanguage model FoxedUp or BRILLIANT.MOD
:root
   order TX TY TZ RX RY RZ
   axis XYZ
   position 0 0 0  
   orientation 0 0 0 
:bonedata
  begin
     id 1 
     name lhipjoint
     direction 0.541323 -0.757556 0.364798 
     length 2.47576 
     axis 0 0 0  XYZ
  end
  begin
     id 2 
     name lfemur
     direction 0.34202 -0.939693 0  
     length 7.46493  
     axis 0 0 20  XYZ
    dof rx ry rz
    limits (-160.0 20.0)
           (-70.0 70.0)
           (-60.0 70.0)
  end
  begin
     id 3 
     name ltibia
     direction 0.34202 -0.939693 0   
     length 7.73805   
     axis 0 0 20   XYZ
    dof rx
    limits (-10.0 170.0)
  end
  begin
     id 4 
     name lfoot
     direction 0.107174 -0.294458 0.949636   
     length 2.25864   
     axis -90 7.62852e-016 20   XYZ
    dof rx rz
    limits (-45.0 90.0)
           (-70.0 20.0)
  end
  begin
     id 5 
     name ltoes
     direction 1.53606e-011 -4.21934e-011 1   
     length 1.12451   
     axis -90 7.62852e-016 20   XYZ
    dof rx
    limits (-90.0 20.0)
  end
  begin
     id 6 
     name rhipjoint
     direction -0.524745 -0.766967 0.36933   
     length 2.44538  
     axis 0 0 0  XYZ 
  end
  begin
     id 7 
     name rfemur
     direction -0.34202 -0.939693 0   
     length 7.61604   
     axis 0 0 -20   XYZ
    dof rx ry rz
    limits (-160.0 20.0)
           (-70.0 70.0)
           (-70.0 60.0)
  end
  begin
     id 8 
     name rtibia
     direction -0.34202 -0.939693 0   
     length 7.61056   
     axis 0 0 -20   XYZ
    dof rx
    limits (-10.0 170.0)
 end
 begin
     id 9 
     name rfoot
     direction -0.12616 -0.346623 0.929482   
     length 2.46372  
     axis -90 -7.62852e-016 -20   XYZ
    dof rx rz
    limits (-45.0 90.0)
           (-20.0 70.0)
  end
  begin
     id 10 
     name rtoes
     direction -1.53531e-011 -4.22004e-011 1   
     length 1.21611   
     axis -90 -7.62852e-016 -20   XYZ
    dof rx
    limits (-90.0 20.0)
  end
  begin
     id 11 
     name lowerback
     direction -0.000778023 0.997293 -0.0735223   
     length 2.06139   
     axis 0 0 0   XYZ
    dof rx ry rz
    limits (-20.0 45.0)
           (-30.0 30.0)
           (-30.0 30.0)
  end
  begin
     id 12 
     name upperback
     direction 0.0222598 0.999722 -0.0078355   
     length 2.06383   
     axis 0 0 0   XYZ
    dof rx ry rz
    limits (-20.0 45.0)
           (-30.0 30.0)
           (-30.0 30.0)
  end
  begin
     id 13 
     name thorax
     direction 0.0219654 0.999405 0.0265994   
     length 2.07163   
     axis 0 0 0   XYZ
    dof rx ry rz
    limits (-20.0 45.0)
           (-30.0 30.0)
           (-30.0 30.0)
  end
  begin
     id 14 
     name lowerneck
     direction 0.0213282 0.988147 0.15202   
     length 1.75969   
     axis 0 0 0   XYZ
    dof rx ry rz
    limits (-20.0 45.0)
           (-30.0 30.0)
           (-30.0 30.0)
  end
  begin
     id 15 
     name upperneck
     direction -0.0546456 0.982624 -0.177379   
     length 1.79244   
     axis 0 0 0   XYZ
    dof rx ry rz
    limits (-20.0 45.0)
           (-30.0 30.0)
           (-30.0 30.0)
  end
  begin
     id 16
     name head
     direction -0.0199987 0.996855 -0.076686  
     length 1.80555  
     axis 0 0 0   XYZ
    dof rx ry rz
    limits (-20.0 45.0)
           (-30.0 30.0)
           (-30.0 30.0)
  end
  begin
     id 17 
     name lclavicle
     direction 0.929565 0.363219 -0.063096  
     length 3.55722  
     axis 0 0 0   XYZ
    dof ry rz
    limits (-20.0 10.0)
           (0.0 20.0)
  end
  begin
     id 18 
     name lhumerus
     direction 1 -4.48993e-011 -2.36203e-027   
     length 4.92785   
     axis 180 -30 -90   XYZ
    dof rx ry rz
    limits (-60.0 90.0)
           (-90.0 90.0)
           (-90.0 90.0)
  end
  begin
     id 19
     name lradius
     direction 1 -4.48947e-011 2.02997e-027   
     length 3.44052   
     axis 180 -30 -90   XYZ
    dof rx
    limits (-10.0 170.0)
  end
  begin
     id 20
     name lwrist
     direction 1 -4.48962e-011 1.45991e-027   
     length 1.72026   
     axis 1.49639e-024 90 90   XYZ
    dof ry
    limits (-180.0 0.0)
 end
  begin
     id 21 
     name lhand
     direction 1 -4.48984e-011 2.91906e-027   
     length 0.654326   
     axis -1.863e-015 90 90   XYZ
    dof rx rz
    limits (-90.0 90.0)
           (-45.0 45.0)
  end
  begin
     id 22 
     name lfingers
     direction 1 -4.48961e-011 5.83968e-027   
     length 0.527534   
     axis -3.72598e-015 90 90   XYZ
    dof rx
    limits (0.0 90.0)
  end
  begin
     id 23
     name lthumb
     direction 0.707107 -6.34963e-011 0.707107   
     length 0.757437   
     axis -90 45 -6.68868e-015   XYZ
    dof rx rz
    limits (-45.0 45.0)
           (-45.0 45.0)
  end
  begin
     id 24 
     name rclavicle
     direction -0.902944 0.422599 -0.0781198   
     length 3.54432  
     axis 0 0 0   XYZ 
    dof ry rz
    limits (-10.0 20.0)
           (-20.0 0.0)
  end
  begin
     id 25 
     name rhumerus
     direction -1 -4.48953e-011 -4.75835e-028  
     length 5.09181   
     axis 180 30 90   XYZ
    dof rx ry rz
    limits (-90.0 60.0)
           (-90.0 90.0)
           (-90.0 90.0)
  end
  begin
     id 26 
     name rradius
     direction -1 -4.48986e-011 -3.25889e-027   
     length 3.49865   
     axis 180 30 90   XYZ
    dof rx
    limits (-10.0 170.0)
  end
  begin
     id 27 
     name rwrist
     direction -1 -4.48963e-011 1.45989e-027   
     length 1.74933   
     axis 1.49639e-024 -90 -90   XYZ
    dof ry
    limits (-180.0 0.0)
  end
  begin
     id 28
     name rhand
     direction -1 -4.49003e-011 2.91844e-027   
     length 0.66641   
     axis -1.863e-015 -90 -90   XYZ
    dof rx rz
    limits (-90.0 90.0)
           (-45.0 45.0)
  end
  begin
     id 29
     name rfingers
     direction -1 -4.48973e-011 5.83886e-027   
     length 0.537277   
     axis -3.72598e-015 -90 -90   XYZ
    dof rx
    limits (0.0 90.0)
  end
  begin
     id 30
     name rthumb
     direction -0.707107 -6.34976e-011 0.707107   
     length 0.771425   
     axis -90 -45 6.68868e-015   XYZ
    dof rx rz
    limits (-45.0 45.0)
           (-45.0 45.0)
  end
:hierarchy
  begin
    root lhipjoint rhipjoint lowerback
    lhipjoint lfemur
    lfemur ltibia
    ltibia lfoot
    lfoot ltoes
    rhipjoint rfemur
    rfemur rtibia
    rtibia rfoot
    rfoot rtoes
    lowerback upperback
    upperback thorax
    thorax lowerneck lclavicle rclavicle
    lowerneck upperneck
    upperneck head
    lclavicle lhumerus
    lhumerus lradius
    lradius lwrist
    lwrist lhand lthumb
    lhand lfingers
    rclavicle rhumerus
    rhumerus rradius
    rradius rwrist
    rwrist rhand rthumb
    rhand rfingers
  end

#!OML:ASF H:\LiuWeirdWalks\Patient Classification 1\Patient 1\Session 1\male.ASF
:FULLY-SPECIFIED
:DEGREES
274
root 1.12627 17.8594 -29.0238 1.67345 3.10441 4.55627
lowerback 3.98556 -6.67696 -8.16861
upperback -1.39684 -9.24867 4.50185
thorax -1.64564 -4.52319 9.64605
lowerneck -14.9695 6.63328 8.01166
upperneck 21.4986 10.7222 -13.941
head 10.6061 4.08872 -4.81663
rclavicle -8.96519e-014 -1.27222e-014
rhumerus -39.991 -2.49901 -71.4228
rradius 28.8263
rwrist -7.26935
rhand -15.6802 -4.54146
rfingers 7.12502
rthumb 10.5087 -34.2588
lclavicle -8.96519e-014 -1.27222e-014
lhumerus -32.624 21.4554 80.373
lradius 38.9544
lwrist 15.5866
lhand -12.673 -0.087248
lfingers 7.12502
lthumb 13.4084 29.4612
rfemur -29.6612 3.09575 11.3895
rtibia 21.9009
rfoot -17.0789 -19.719
rtoes -12.6031
lfemur 10.4982 1.11621 -30.4141
ltibia 6.60414
lfoot -5.84315 13.7417
ltoes -12.4245
275
root 1.11593 17.854 -28.9761 1.75343 3.19675 4.62296
lowerback 3.89693 -6.71119 -8.18541
upperback -1.41428 -9.2898 4.47946
thorax -1.60653 -4.54519 9.61911
lowerneck -14.9499 6.62403 7.99265
upperneck 21.4881 10.7079 -13.9204
head 10.594 4.08395 -4.80805
rclavicle 4.90501e-014 -5.56597e-014
rhumerus -40.0379 -2.64393 -71.3297
rradius 28.6525
rwrist -7.14694
rhand -15.6476 -4.51659
rfingers 7.12502
rthumb 10.5401 -34.2323
lclavicle 4.90501e-014 -5.56597e-014
lhumerus -32.6097 21.4238 80.3891
lradius 38.9713
lwrist 15.5673
lhand -12.6587 -0.0629952
lfingers 7.12502
lthumb 13.4221 29.4846
rfemur -29.4944 3.1917 11.3293
rtibia 21.8485
rfoot -17.1015 -19.6809
rtoes -12.7874
lfemur 10.6587 0.962306 -30.4475
ltibia 6.47653
lfoot -5.80243 13.763
ltoes -12.5712
276
root 1.10535 17.8487 -28.9268 1.8339 3.28288 4.68413
lowerback 3.80446 -6.74335 -8.20181
upperback -1.43176 -9.32776 4.46125
thorax -1.56538 -4.56575 9.59586
lowerneck -14.9452 6.61691 7.96665
upperneck 21.4944 10.6967 -13.8875
head 10.5901 4.08022 -4.79345
rclavicle -7.10655e-015 6.36111e-015
rhumerus -40.0798 -2.81187 -71.2177
rradius 28.4712
rwrist -6.97692
rhand -15.5921 -4.45994
rfingers 7.12502
rthumb 10.5936 -34.1729
lclavicle -7.10655e-015 6.36111e-015
lhumerus -32.6042 21.4047 80.4004
lradius 38.9813
lwrist 15.5609
lhand -12.6241 -0.0454271
lfingers 7.12502
lthumb 13.4555 29.5
rfemur -29.3227 3.28892 11.2794
rtibia 21.8067
rfoot -17.196 -19.657
rtoes -12.9313
lfemur 10.8695 0.813854 -30.4747
ltibia 6.25863
lfoot -5.71478 13.765
ltoes -12.7592
277
root 1.09488 17.8439 -28.8763 1.91634 3.37068 4.7543
lowerback 3.72686 -6.77235 -8.22779
upperback -1.46422 -9.3632 4.44595
thorax -1.54692 -4.58302 9.58458
lowerneck -14.9215 6.61933 7.96052
upperneck 21.4683 10.694 -13.866
head 10.5737 4.08271 -4.7845
rclavicle 1.44914e-013 -1.59028e-015
rhumerus -40.141 -2.96648 -71.1
rradius 28.3073
rwrist -6.83204
rhand -15.541 -4.42583
rfingers 7.12502
rthumb 10.6429 -34.1363
lclavicle 1.44914e-013 -1.59028e-015
lhumerus -32.6317 21.3973 80.4109
lradius 38.9973
lwrist 15.5587
lhand -12.6029 -0.0105336
lfingers 7.12502
lthumb 13.4759 29.5335
rfemur -29.1479 3.36791 11.2223
rtibia 21.7589
rfoot -17.3072 -19.6265
rtoes -13.0245
lfemur 11.1049 0.663112 -30.5127
ltibia 5.99431
lfoot -5.60062 13.7544
ltoes -12.9556
278
root 1.08383 17.8405 -28.8256 2.00925 3.46351 4.80112
lowerback 3.65392 -6.80291 -8.23506
upperback -1.51009 -9.40004 4.44474
thorax -1.54535 -4.59978 9.57981
lowerneck -14.8587 6.63033 7.97482
upperneck 21.3902 10.6996 -13.8675
head 10.5347 4.09159 -4.78553
rclavicle 1.58829e-013 -1.27222e-014
rhumerus -40.2259 -3.07302 -70.9928
rradius 28.1792
rwrist -6.74004
rhand -15.5092 -4.42075
rfingers 7.12502
rthumb 10.6737 -34.1296
lclavicle 1.58829e-013 -1.27222e-014
lhumerus -32.6769 21.3999 80.4209
lradius 39.0048
lwrist 15.5641
lhand -12.5837 0.0248933
lfingers 7.12502
lthumb 13.4945 29.5677
rfemur -28.9888 3.45788 11.1843
rtibia 21.6997
rfoot -17.4367 -19.6213
rtoes -12.9725
lfemur 11.3451 0.504879 -30.5218
ltibia 5.69294
lfoot -5.46861 13.7324
ltoes -13.1625
279
root 1.07198 17.839 -28.7755 2.11363 3.54826 4.81191
lowerback 3.59173 -6.83131 -8.21513
upperback -1.56714 -9.43324 4.46217
thorax -1.56344 -4.61354 9.58257
lowerneck -14.8138 6.64292 7.98967
upperneck 21.3613 10.7174 -13.8859
head 10.5199 4.10194 -4.79212
rclavicle 3.97569e-015 -3.18055e-015
rhumerus -40.3253 -3.13014 -70.9001
rradius 28.0819
rwrist -6.69605
rhand -15.5206 -4.46887
rfingers 7.12502
rthumb 10.6627 -34.1783
lclavicle 3.97569e-015 -3.18055e-015
lhumerus -32.7333 21.4211 80.4291
lradius 39.0045
lwrist 15.5694
lhand -12.5921 0.00679397
lfingers 7.12502
lthumb 13.4864 29.5501
rfemur -28.8649 3.56969 11.1798
rtibia 21.6309
rfoot -17.4821 -19.65
rtoes -12.8885
lfemur 11.5856 0.35188 -30.4872
ltibia 5.35181
lfoot -5.3194 13.6975
ltoes -13.3628
280
root 1.06005 17.8394 -28.7259 2.22702 3.62715 4.80585
lowerback 3.5374 -6.86587 -8.18243
upperback -1.62274 -9.47443 4.48967
thorax -1.58288 -4.63155 9.58982
lowerneck -14.7975 6.66215 8.00434
upperneck 21.3598 10.7504 -13.918
head 10.5236 4.11567 -4.80159
rclavicle -5.2181e-014 -9.54166e-015
rhumerus -40.4088 -3.1337 -70.8359
rradius 28.0047
rwrist -6.69422
rhand -15.5573 -4.5484
rfingers 7.12502
rthumb 10.6272 -34.2597
lclavicle -5.2181e-014 -9.54166e-015
lhumerus -32.7789 21.4845 80.4248
lradius 38.9924
lwrist 15.5535
lhand -12.607 -0.011608
lfingers 7.12502
lthumb 13.472 29.5327
rfemur -28.7773 3.66268 11.1939
rtibia 21.5565
rfoot -17.4171 -19.6862
rtoes -12.7982
lfemur 11.8243 0.20278 -30.4329
ltibia 4.98822
lfoot -5.16638 13.652
ltoes -13.5422
281
root 1.04816 17.8416 -28.6769 2.34533 3.67698 4.77378
lowerback 3.49524 -6.89402 -8.12282
upperback -1.67847 -9.50639 4.52635
thorax -1.61393 -4.64461 9.59403
lowerneck -14.8189 6.68687 8.01953
upperneck 21.4128 10.7976 -13.9542
head 10.5567 4.13211 -4.81128
rclavicle 7.53394e-014 1.90833e-014
rhumerus -40.4799 -3.11885 -70.7802
rradius 27.9303
rwrist -6.70317
rhand -15.6006 -4.62551
rfingers 7.12502
rthumb 10.5854 -34.3389
lclavicle 7.53394e-014 1.90833e-014
lhumerus -32.8181 21.5775 80.4108
lradius 38.9647
lwrist 15.5114
lhand -12.6386 -0.0594514
lfingers 7.12502
lthumb 13.4415 29.4869
rfemur -28.7342 3.7361 11.2432
rtibia 21.4882
rfoot -17.2715 -19.7167
rtoes -12.8168
lfemur 12.067 0.0813679 -30.3503
ltibia 4.59536
lfoot -5.0065 13.5948
ltoes -13.6964
282
root 1.0368 17.8452 -28.6285 2.4623 3.68524 4.71273
lowerback 3.46847 -7.1005 -8.02463
upperback -1.76328 -9.77498 4.70686
thorax -1.61267 -4.77933 9.72908
lowerneck -14.6755 7.05728 8.21609
upperneck 21.2881 11.3847 -14.3871
head 10.6059 4.38115 -4.91113
rclavicle -2.09718e-014 9.54166e-015
rhumerus -40.3106 -2.41456 -70.8097
rradius 27.8214
rwrist -6.76177
rhand -15.6248 -4.6771
rfingers 7.12502
rthumb 10.5621 -34.3917
lclavicle -2.09718e-014 9.54166e-015
lhumerus -33.0643 22.3283 80.2834
lradius 38.9927
lwrist 15.4365
lhand -12.6796 -0.0716233
lfingers 7.12502
lthumb 13.402 29.4773
rfemur -28.7364 3.77895 11.3364
rtibia 21.4479
rfoot -17.0482 -19.7182
rtoes -12.9159
lfemur 12.3397 0.00160613 -30.2405
ltibia 4.13311
lfoot -4.8133 13.5205
ltoes -13.8525
